<svg width="1402" height="198" viewBox="0 0 1402 198" fill="none" xmlns="http://www.w3.org/2000/svg">
<path d="M69.996 197.733C30.0956 197.733 2.76662 171.77 0.580303 132.143H41.5738C43.7601 147.174 54.6917 156.739 69.996 156.739C85.8468 156.739 98.6914 148.541 98.6914 138.976C98.6914 105.907 1.67346 135.696 1.67346 58.355C1.67346 26.9266 32.2819 0.964084 69.996 0.964084C109.623 0.964084 136.132 26.9266 138.318 66.5537H97.0517C95.6852 52.0693 85.3002 41.9576 69.996 41.9576C54.965 41.9576 42.667 49.3364 42.667 58.355C42.667 89.7833 139.685 59.9947 139.685 138.976C139.685 171.224 108.257 197.733 69.996 197.733ZM268.904 195C267.811 169.857 268.084 144.988 268.358 119.845H197.302C197.029 144.988 196.756 169.857 197.849 195H156.855C154.122 131.323 159.588 67.3736 156.855 3.69698H197.849C198.942 28.8397 198.669 53.7091 198.395 78.8517H269.451C269.724 53.7091 269.997 28.8397 268.904 3.69698H309.898C312.631 67.3736 307.165 131.323 309.898 195H268.904ZM336.138 195C333.405 131.323 338.871 67.3736 336.138 3.69698H377.131C379.864 67.3736 374.398 131.323 377.131 195H336.138ZM403.055 195C400.596 151.274 408.248 47.4234 403.055 3.69698H483.676C520.57 3.69698 545.166 28.0198 545.166 64.3674C545.166 87.3237 532.595 107.274 513.465 118.206C533.141 137.882 545.166 164.938 545.166 195H504.173C504.173 160.292 477.937 131.323 444.322 127.224C443.502 154.006 443.229 178.603 444.049 195H403.055ZM445.415 85.684H481.216C493.788 85.684 504.173 76.1188 504.173 64.3674C504.173 52.6159 495.974 44.6905 483.676 44.6905H445.962C445.962 57.5351 445.689 71.4729 445.415 85.684ZM684.424 195L674.586 165.758H604.351C601.071 175.596 597.518 185.162 593.966 195H550.512C574.289 131.323 590.959 67.3736 614.736 3.69698H663.654L727.878 195H684.424ZM618.015 124.764H660.922L638.785 59.4481C631.68 81.0381 625.121 102.901 618.015 124.764ZM844.959 195L780.189 123.398C779.916 147.174 779.643 171.224 780.736 195H739.742C737.009 131.323 742.475 67.3736 739.742 3.69698H780.736C781.556 23.3739 781.556 43.324 781.282 63.2742C800.959 43.324 820.363 23.6472 842.226 3.69698H902.077C869.008 33.7589 841.133 63.8208 810.798 93.8827L902.077 195H844.959ZM1025.11 195L1015.27 165.758H945.034C941.755 175.596 938.202 185.162 934.649 195H891.196C914.972 131.323 931.643 67.3736 955.419 3.69698H1004.34L1068.56 195H1025.11ZM958.699 124.764H1001.61L979.469 59.4481C972.363 81.0381 965.804 102.901 958.699 124.764ZM1080.15 195C1077.69 151.274 1085.35 47.4234 1080.15 3.69698H1160.23C1195.48 3.69698 1218.98 26.6533 1218.98 61.0879C1218.98 74.2058 1214.61 86.2306 1206.96 96.069C1216.25 105.907 1221.72 119.845 1221.72 136.516C1221.72 168.764 1194.11 195 1160.23 195H1080.15ZM1120.87 154.006H1160.23C1171.43 154.006 1180.72 146.081 1180.72 136.516C1180.72 126.404 1173.62 119.845 1162.96 119.845H1121.69C1121.42 131.597 1120.87 143.348 1120.87 154.006ZM1122.79 78.8517H1157.49C1168.7 78.8517 1177.99 70.9263 1177.99 61.0879C1177.99 51.2494 1170.89 44.6905 1160.23 44.6905H1123.06C1123.06 55.3488 1122.79 67.1003 1122.79 78.8517ZM1358.32 195L1348.48 165.758H1278.25C1274.97 175.596 1271.41 185.162 1267.86 195H1224.41C1248.18 131.323 1264.85 67.3736 1288.63 3.69698H1337.55L1401.77 195H1358.32ZM1291.91 124.764H1334.82L1312.68 59.4481C1305.57 81.0381 1299.02 102.901 1291.91 124.764Z" fill="#2E2A25"/>
</svg>
